<?xml version="1.0" encoding="utf-8"?>
<!-- Generator: Adobe Illustrator 25.4.1, SVG Export Plug-In . SVG Version: 6.00 Build 0)  -->
<svg version="1.1" id="Layer_1" xmlns="http://www.w3.org/2000/svg" xmlns:xlink="http://www.w3.org/1999/xlink" x="0px" y="0px"
	 width="175px" height="40px" viewBox="0 0 175 40" style="enable-background:new 0 0 175 40;" xml:space="preserve">
<style type="text/css">
	.st0{fill:#FFFFFF;}
	.st1{fill:#00B1CD;}
	.st2{fill:#333333;}
</style>
<g id="Group_31" transform="translate(9112.225 -2103.287)">
	<g id="Group_3117" transform="translate(-9112.225 2103.287)">
		<ellipse id="Ellipse_350" class="st0" cx="11.6" cy="20.1" rx="10.2" ry="10.5"/>
		<path id="Path_2466" class="st1" d="M17.1,22.3l-1.7,0.9v0c0.5,0.2,1,0.3,1.5,0.3c0.4,0,0.8,0,1.2-0.2v-6.9l-0.5,0L17,17.1
			L17.1,22.3L17.1,22.3z M4,18.9v-0.2c0-1.3,0-1.4,1.4-3.2l0,0l-1.1,0.6H3.4c-0.4,0-0.6,0-0.7,0.2c-0.1,0.1-0.1,0.3-0.1,0.5H2.4
			c-0.1-0.2-0.2-0.5-0.2-0.7c0-0.4,0.1-0.7,0.4-1c0.3-0.3,0.8-0.4,1.2-0.4l1.2,0.1l0.8-0.1l0.1,0.1v6.7c0,0.8,0,1-1.7,2.7l0,0.1
			l1.5-0.5h0.9v-9.1h0.5v4.2h1.7v-3l2.2-1.2l0.1,0.1l-0.2,1.8v6.7l1,0.8v0.1l-1.6,1h-0.1l-1.3-1.3v-3.6H7.1v4.1l-1.3,0.9h-3
			l-0.1-0.1C4,23.6,4,23.2,4,22.4v-2.1H2.1l0-0.1l0.9-1.2L4,18.9L4,18.9z M13.8,20.3c0,0.9,0.3,1.8,0.9,2.5c0.1,0.1,0.2,0.2,0.3,0.3
			h0l0.4-0.5v-5.3l1.6-0.9v0c-0.6-0.1-1.2-0.2-1.8-0.2c-1.2,0-1.6,0.2-2,0.6c-0.2,0.2-0.3,0.5-0.4,0.8h-0.2
			c-0.1-0.3-0.2-0.6-0.2-0.9c0-0.5,0.2-1,0.6-1.4c0.5-0.5,1.2-0.7,2.4-0.7c0.9,0,2.3,0.3,3.5,0.3c0.8,0,1.1-0.1,1.4-0.6l0.2,0
			c-0.3,1.8-0.9,2.3-1.9,2.3h-0.1v6.7c0.7-0.3,1.3-0.8,1.7-1.5l0.2,0c0,0.8-0.4,1.6-0.9,2.2c-0.8,0.8-1.9,1.2-3.1,1.2
			c-2.2,0.1-4-1.5-4.2-3.7c0-0.1,0-0.2,0-0.3c0-1,0.4-1.9,1-2.6c0.4-0.4,1-0.8,1.6-1l0.1,0.1C14.1,18.4,13.8,19.3,13.8,20.3
			 M22.9,20c0-3-1.1-5.8-3.2-7.9C15.1,7.7,8,7.7,3.4,12.1c-4.2,4.4-4.2,11.4,0,15.8c4.5,4.4,11.7,4.4,16.3,0
			C21.7,25.8,22.9,23,22.9,20"/>
	</g>
	<path id="Path_2293" class="st2" d="M-9081,2131.6l-0.3,0.3c-0.5-0.4-1.1-0.5-1.7-0.5c-0.7,0-1.4,0.2-2,0.5v0
		c0.7-0.5,1.5-0.7,2.4-0.7C-9082.1,2131.1-9081.5,2131.2-9081,2131.6 M-8945.8,2131.3c0-0.1,0.1-0.3,0.2-0.4
		c0.2-0.1,0.5-0.1,0.7-0.1c1,0,1.9,0.3,2.7,0.9l-0.3,0.2c-0.7-0.6-1.7-0.8-2.5-0.8C-8945.3,2131.2-8945.5,2131.2-8945.8,2131.3
		 M-9030.9,2131.3c0-0.1,0.1-0.3,0.2-0.4c0.2-0.1,0.5-0.1,0.7-0.1c0.9,0,1.8,0.3,2.5,0.9l-0.3,0.2c-0.6-0.5-1.5-0.8-2.3-0.8
		C-9030.5,2131.2-9030.7,2131.2-9030.9,2131.3 M-9063.7,2130c0.6,0.6,1.2,1.2,1.9,1.6l-0.4,0.3c-0.7-0.5-1.3-1-1.9-1.6L-9063.7,2130
		z M-8970.2,2130c0.6,0.6,1.2,1.2,1.9,1.6l-0.4,0.3c-0.7-0.5-1.3-1-1.9-1.6L-8970.2,2130z M-9004.2,2130c0.6,0.6,1.2,1.2,1.9,1.6
		l-0.4,0.3c-0.7-0.5-1.3-1-1.9-1.6L-9004.2,2130z M-8976,2129.9c0.6,0.7,1.3,1.3,2.1,1.7l-0.4,0.3c-0.8-0.5-1.5-1.1-2.1-1.7
		L-8976,2129.9z M-9069.6,2129.9c0.6,0.7,1.3,1.3,2.1,1.7l-0.4,0.3c-0.8-0.5-1.5-1.1-2.1-1.7L-9069.6,2129.9z M-9021.1,2129.6
		c0.8,0.8,1.7,1.5,2.7,2.1l-0.4,0.3c-1-0.6-1.9-1.3-2.7-2.1L-9021.1,2129.6z M-9013.1,2131.9c-0.7-0.4-1.3-1-1.8-1.6v-1.9
		c0-0.6,0-1.2-0.1-1.7l0.4-0.2c0,0.5,0.1,1.1,0.1,1.7v2c0.5,0.6,1.1,1.1,1.8,1.5L-9013.1,2131.9z M-8940.5,2130.3v-3.4l-1.2-0.5
		l0.2-0.3l1.3,0.6v3.9l-0.1,0L-8940.5,2130.3z M-9025.8,2130.3v-3.4l-1.2-0.5l0.2-0.3l1.3,0.6v3.9l-0.1,0L-9025.8,2130.3z
		 M-9012.1,2127.1c0-0.6,0-1.1,0.1-1.7c0.6,0.2,1.2,0.3,1.7,0.3v4.1c-0.3,0.1-0.6,0.3-0.9,0.4c-0.3-0.2-0.7-0.4-0.9-0.7
		L-9012.1,2127.1L-9012.1,2127.1z M-9078.8,2123.4h2.8v0.3h-2.8V2123.4z M-9086.3,2123.9l0.4-0.4h2.2v0.3h-0.9
		C-9085.2,2123.8-9085.8,2123.8-9086.3,2123.9 M-9050.1,2131.6l-0.4,0.3c-0.8-0.5-1.5-1.1-2-1.8v-5.6c0-1.3,0-1.9-0.1-2.4l0.4-0.2v8
		C-9051.6,2130.6-9050.9,2131.2-9050.1,2131.6 M-9014.7,2123.4c0.7-0.5,1.3-1,2-1.5c0.8,0.5,1.6,0.9,2.5,1.1v2.3
		C-9012.2,2125.1-9013.6,2124.4-9014.7,2123.4 M-8951.3,2121.9L-8951.3,2121.9c0.6,1.1,1.2,2.2,2,3.2l-2,1.1L-8951.3,2121.9z
		 M-8942.5,2127.1l-0.3,0.3l-2.6-1.2v-2.9c0-0.5,0-0.9-0.1-1.4l0.5-0.1v4.2L-8942.5,2127.1z M-9027.9,2127.1l-0.3,0.3l-2.6-1.2v-2.9
		c0-0.5,0-0.9-0.1-1.4l0.5-0.1v4.2L-9027.9,2127.1z M-8978.9,2130c-1.3,1.4-3.2,2.2-5.1,2.1c-2.2,0-4-0.7-5.3-2
		c-1.2-1.2-1.9-2.8-1.8-4.5c0-1.5,0.6-2.9,1.7-3.9l0,0c-0.9,1-1.4,2.3-1.4,3.7c0,1.7,0.7,3.3,1.8,4.5c1.2,1.2,2.9,1.9,5.1,1.9
		C-8982,2131.8-8980.3,2131.2-8978.9,2130L-8978.9,2130z M-9021.1,2121.8h-0.7l0.2-0.4h0.5L-9021.1,2121.8z M-9015.7,2121.4
		l-0.3,0.4c-0.6-0.1-1.2-0.1-1.8-0.1v-0.4L-9015.7,2121.4L-9015.7,2121.4z M-8951,2131.9c-1.1-1-2.2-2.1-3.2-3.3v-5
		c0-1-0.1-1.8-0.1-2.2l0.4-0.1c0.1,0.6,0.1,1.3,0.1,1.9v5.2c1,1.1,2,2.2,3.1,3.2L-8951,2131.9z M-9008,2131.6l-0.4,0.3
		c-0.6-0.5-1.1-1.1-1.6-1.8v-7.4c-0.9-0.2-1.8-0.6-2.6-1.1l0.3-0.3c0.8,0.6,1.8,0.9,2.7,1.1v7.4
		C-9009.1,2130.6-9008.6,2131.1-9008,2131.6 M-9056.2,2131.6l-0.4,0.3c-0.6-0.4-1.2-0.9-1.6-1.5v-8.1c-0.3-0.4-0.6-0.7-0.9-0.9
		l0.4-0.2c0.4,0.3,0.7,0.6,1,1v8C-9057.3,2130.8-9056.8,2131.2-9056.2,2131.6 M-8996.7,2131.6l-0.4,0.3c-0.6-0.4-1.2-0.9-1.6-1.5
		v-8.1c-0.3-0.4-0.6-0.7-0.9-0.9l0.4-0.2c0.4,0.3,0.7,0.6,1,1v8C-8997.8,2130.8-8997.3,2131.2-8996.7,2131.6 M-8962.7,2131.6
		l-0.4,0.3c-0.6-0.4-1.2-0.9-1.6-1.5v-8.1c-0.3-0.4-0.6-0.7-0.9-0.9l0.4-0.2c0.4,0.3,0.7,0.6,1,1v8
		C-8963.8,2130.8-8963.3,2131.2-8962.7,2131.6 M-8957.4,2131.6l-0.4,0.3c-0.6-0.4-1.2-0.9-1.6-1.5v-8.1c-0.3-0.4-0.6-0.7-1-0.9
		l0.4-0.2c0.4,0.3,0.7,0.6,1,1v8C-8958.5,2130.8-8958,2131.2-8957.4,2131.6 M-9004,2129.6v-7.4c-0.2-0.3-0.5-0.6-0.8-0.9l0.3-0.2
		c0.3,0.3,0.6,0.6,0.9,0.9v7.2L-9004,2129.6L-9004,2129.6L-9004,2129.6z M-8975.8,2129.5v-7.2c-0.2-0.3-0.5-0.6-0.8-0.9l0.3-0.2
		c0.3,0.3,0.6,0.6,0.9,0.9v7.1L-8975.8,2129.5L-8975.8,2129.5z M-9041,2129.9c0.5,0.7,1.2,1.3,2,1.7l-0.4,0.3
		c-0.8-0.5-1.5-1.1-2-1.8v-8.1c-0.3-0.2-0.6-0.4-0.9-0.6l0.3-0.2c0.3,0.2,0.6,0.4,0.9,0.7L-9041,2129.9L-9041,2129.9z M-8970,2129.6
		v-7.4c-0.2-0.3-0.5-0.6-0.8-0.9l0.3-0.2c0.3,0.3,0.6,0.6,0.9,0.9v7.2L-8970,2129.6L-8970,2129.6L-8970,2129.6z M-9069.3,2129.5
		v-7.2c-0.2-0.3-0.5-0.6-0.8-0.9l0.3-0.2c0.3,0.3,0.6,0.6,0.9,0.9v7.1L-9069.3,2129.5L-9069.3,2129.5L-9069.3,2129.5z
		 M-9063.5,2129.6v-7.4c-0.2-0.3-0.5-0.6-0.8-0.9l0.3-0.2c0.3,0.3,0.6,0.6,0.9,0.9v7.2L-9063.5,2129.6L-9063.5,2129.6
		L-9063.5,2129.6z M-9036.1,2121.7c-0.2-0.2-0.4-0.3-0.6-0.4l0.3-0.2c0.2,0.1,0.4,0.3,0.6,0.5v8.4c0.4,0.6,1,1.2,1.6,1.7l-0.4,0.3
		c-0.6-0.5-1.2-1.1-1.6-1.8L-9036.1,2121.7L-9036.1,2121.7z M-9049.5,2123.7c0-1.7,0.1-2.3,0.3-2.9c0.5,0.3,1.1,0.6,1.7,1v7.9
		c-0.4,0.1-0.7,0.3-1.1,0.4c-0.3-0.2-0.7-0.5-0.9-0.8L-9049.5,2123.7z M-8938.7,2122.2l-0.3,0.4c-0.2,0.1-0.3,0.1-0.5,0.1
		c-1.2,0-2.4-0.5-3.2-1.5v-0.4h0.1c0.8,1,2,1.5,3.2,1.5C-8939.1,2122.3-8938.9,2122.3-8938.7,2122.2L-8938.7,2122.2z M-9024,2122.2
		l-0.3,0.4c-0.2,0.1-0.3,0.1-0.5,0.1c-1.2,0-2.4-0.5-3.2-1.5v-0.4h0.1c0.8,1,2,1.5,3.2,1.5
		C-9024.4,2122.3-9024.2,2122.3-9024,2122.2L-9024,2122.2z M-8949.1,2124.9c-0.8-1.2-1.5-2.4-2.2-3.7v-0.6l0.1,0
		c0.7,1.5,1.5,2.8,2.4,4.1L-8949.1,2124.9z M-8965.7,2130.4l-0.2-0.3c-0.2,0.1-0.4,0.2-0.6,0.2c-0.2-0.1-0.4-0.2-0.5-0.4v-8
		c0.3-0.2,0.7-0.4,1.1-0.5c0.4,0.2,0.7,0.5,0.9,0.9v8.1c0.5,0.7,1.2,1.2,1.9,1.7h0.1c0.9-0.7,1.8-1.3,2.8-1.9l-0.2-0.3l-0.5,0.2
		c-0.3-0.2-0.6-0.4-0.8-0.6v-7.7c0.3-0.2,0.7-0.4,1.1-0.5c0.4,0.2,0.7,0.5,0.9,0.9v8.1c0.5,0.7,1.2,1.2,1.9,1.7h0.1
		c1-0.8,1.8-1.3,3-2.1l-0.2-0.3c-0.2,0.1-0.5,0.2-0.8,0.3c-0.3-0.1-0.6-0.3-0.8-0.6v-8c-0.5-0.9-1.2-1.6-2-2.1h-0.1
		c-1.2,0.5-2.3,1.2-3.3,2c-0.5-0.8-1.1-1.5-2-2h-0.1c-1.2,0.5-2.3,1.1-3.2,2c-0.5-0.8-1.1-1.4-1.8-2h-0.1c-1.2,0.6-2.2,1.4-3.2,2.2
		l0.2,0.2c0.3-0.2,0.6-0.4,0.8-0.5c0.3,0.3,0.6,0.5,0.8,0.8v7.4c-0.2,0.2-0.4,0.3-0.6,0.5v0.1c0.7,0.7,1.4,1.4,2.2,1.9h0.1
		C-8967.7,2131.6-8966.8,2130.9-8965.7,2130.4 M-9064.7,2130.2l-0.2-0.3c-0.3,0.1-0.6,0.3-0.9,0.4c-0.2-0.1-0.5-0.3-0.7-0.5v-8.3
		c-0.5-0.8-1.1-1.4-1.8-2h-0.1c-1.2,0.6-2.2,1.4-3.2,2.2l0.2,0.2c0.3-0.2,0.6-0.4,0.8-0.5c0.3,0.3,0.6,0.5,0.8,0.8v7.2
		c-0.2,0.2-0.4,0.4-0.6,0.5v0.1c0.7,0.8,1.5,1.5,2.4,2.1h0.1C-9066.7,2131.4-9065.9,2130.9-9064.7,2130.2 M-8999.5,2130.2l-0.2-0.3
		c-0.3,0.1-0.6,0.2-0.8,0.4c-0.2-0.1-0.3-0.2-0.5-0.4v-8c0.3-0.2,0.7-0.4,1.1-0.5c0.4,0.2,0.7,0.5,0.9,0.9v8.1
		c0.5,0.7,1.2,1.2,1.9,1.7h0.1c1-0.7,2-1.4,3-2.1l-0.2-0.3c-0.2,0.1-0.5,0.2-0.8,0.3c-0.3-0.1-0.6-0.3-0.8-0.6v-8
		c-0.5-0.9-1.2-1.6-2-2.1h-0.1c-1.2,0.5-2.3,1.1-3.2,2c-0.5-0.8-1.1-1.4-1.8-2h-0.1c-1.2,0.6-2.2,1.4-3.2,2.2l0.2,0.2
		c0.3-0.2,0.6-0.4,0.8-0.5c0.3,0.3,0.6,0.5,0.8,0.8v7.4c-0.2,0.2-0.4,0.3-0.6,0.5v0.1c0.7,0.7,1.4,1.4,2.2,1.9h0.1
		C-9001.7,2131.5-9000.6,2130.8-8999.5,2130.2 M-9038.4,2121.3c-0.5-0.7-1.2-1.2-1.9-1.7h-0.1c-1.1,0.7-1.8,1.2-3,2.1l0.2,0.3
		c0.2-0.1,0.5-0.3,0.7-0.4c0.3,0.2,0.6,0.4,0.8,0.6v8.1c0.6,0.8,1.4,1.5,2.2,2h0.1c0.9-0.7,2-1.4,3-2c0.5,0.8,1.1,1.4,1.8,2h0.1
		c1-0.7,2.2-1.6,3.1-2.2l-0.2-0.3c-0.3,0.1-0.6,0.3-0.9,0.4c-0.2-0.2-0.5-0.4-0.7-0.6v-7.5c0.2-0.2,0.4-0.3,0.6-0.5v-0.1
		c-0.7-0.7-1.4-1.3-2.2-1.9h-0.1c-1.2,0.7-2,1.2-3.1,2l0.2,0.3l0.8-0.4c0.2,0.1,0.4,0.2,0.6,0.4v7.9c-0.4,0.2-0.7,0.3-1.1,0.5
		c-0.3-0.2-0.7-0.5-0.9-0.8L-9038.4,2121.3z M-8971.1,2130.2l-0.2-0.3c-0.3,0.1-0.6,0.3-0.9,0.4c-0.2-0.1-0.5-0.3-0.7-0.5v-8.3
		c-0.5-0.8-1.1-1.4-1.8-2h-0.1c-1.2,0.6-2.2,1.4-3.2,2.2l0.2,0.2c0.3-0.2,0.6-0.4,0.8-0.5c0.3,0.3,0.6,0.5,0.8,0.8v7.2
		c-0.2,0.2-0.4,0.4-0.6,0.5v0.1c0.7,0.8,1.5,1.5,2.4,2.1h0.1C-8973.3,2131.5-8972.2,2130.8-8971.1,2130.2 M-9059,2130.2l-0.2-0.3
		c-0.3,0.1-0.6,0.2-0.8,0.4c-0.2-0.1-0.3-0.2-0.5-0.4v-8c0.3-0.2,0.7-0.4,1.1-0.5c0.4,0.2,0.7,0.5,0.9,0.9v8.1
		c0.5,0.7,1.2,1.2,1.9,1.7h0.1c1-0.7,2-1.4,3-2.1l-0.2-0.3c-0.2,0.1-0.5,0.2-0.8,0.3c-0.3-0.1-0.6-0.3-0.8-0.6v-8
		c-0.5-0.9-1.2-1.6-2-2.1h-0.1c-1.2,0.5-2.3,1.1-3.2,2c-0.5-0.8-1.1-1.4-1.8-2h-0.1c-1.2,0.6-2.2,1.4-3.2,2.2l0.2,0.2
		c0.3-0.2,0.6-0.4,0.8-0.5c0.3,0.3,0.6,0.5,0.8,0.8v7.4c-0.2,0.2-0.4,0.3-0.6,0.5v0.1c0.7,0.7,1.4,1.4,2.2,1.9h0.1
		C-9061.1,2131.5-9060.1,2130.8-9059,2130.2 M-8951.3,2127.3v-0.6l4.9-2.6v-0.1c-1-1.4-2-2.9-2.8-4.5h-0.1c-1.7,0.7-3.5,1.3-5.3,1.8
		c0.1,0.9,0.2,1.7,0.2,2.6v4.9c1,1.2,2.1,2.4,3.3,3.4h0.1c1.5-1,3-1.9,4.6-2.7l-0.2-0.4c-0.7,0.4-1.4,0.7-2,0.9
		C-8949.6,2129.2-8950.5,2128.3-8951.3,2127.3 M-9008.4,2132.2L-9008.4,2132.2c1.1-0.7,2.2-1.6,3.2-2.2l-0.2-0.3
		c-0.3,0.1-0.6,0.3-0.9,0.4c-0.2-0.2-0.5-0.4-0.7-0.6v-6.1c0-0.7,0-1.5,0.2-2.2c-1.3-0.3-3.4-1.1-4.2-1.7h-0.1
		c-1.2,1.5-2.7,2.7-4.3,3.7v0.1c0.8,0.9,1.9,1.6,3,1.9c-1,0.5-2,0.9-3,1.2c0.1,0.6,0.1,1.3,0.1,2v2c0.5,0.8,1.3,1.4,2.1,1.8h0.1
		c0.9-0.7,1.9-1.3,2.9-2C-9009.7,2131-9009.1,2131.7-9008.4,2132.2 M-8942.6,2132.3c1.5-1,3.2-1.8,4.9-2.3c-0.1-0.5-0.1-0.9-0.1-1.4
		v-3.2l-3-1.3h-0.1l-0.9,1l-0.9-0.4v-3.1c0.8,0.9,1.9,1.3,3.1,1.3c0.2,0,0.4,0,0.7-0.1c0.8-0.9,1.3-2,1.4-3.2c-0.1,0-0.3,0-0.4,0
		c0,0.2,0,0.4-0.1,0.7c-0.2,0.1-0.5,0.2-0.7,0.2c-0.8,0-1.5-0.3-2.1-0.9h-0.1c-1.5,1-3.2,1.7-4.9,2.2c0.1,0.6,0.1,1.1,0.1,1.7v2.9
		l2.8,1.3h0.1l0.9-1l1.1,0.5v3.1c-1-0.8-2.2-1.2-3.5-1.2c-0.2,0-0.4,0-0.7,0.1c-0.8,0.9-1.3,2-1.4,3.2c0.1,0,0.3,0,0.4,0
		c0-0.2,0-0.4,0.1-0.7c0.2-0.1,0.5-0.2,0.7-0.2C-8944.2,2131.4-8943.3,2131.7-8942.6,2132.3L-8942.6,2132.3L-8942.6,2132.3z
		 M-9027.9,2132.3c1.5-1,3.2-1.8,4.9-2.3c-0.1-0.5-0.1-0.9-0.1-1.4v-3.2l-3-1.3h-0.1l-0.9,1l-0.9-0.4v-3.1c0.8,0.9,1.9,1.3,3.1,1.3
		c0.2,0,0.4,0,0.7-0.1c0.8-0.9,1.3-2,1.4-3.2c-0.1,0-0.3,0-0.4,0c0,0.2,0,0.4-0.1,0.7c-0.2,0.1-0.5,0.2-0.7,0.2
		c-0.8,0-1.5-0.3-2.1-0.9h0c-1.5,1-3.2,1.7-4.9,2.2c0.1,0.6,0.1,1.1,0.1,1.7v2.9l2.8,1.3h0.1l0.9-1l1.1,0.5v3.1
		c-0.9-0.8-2.1-1.2-3.3-1.2c-0.2,0-0.4,0-0.7,0.1c-0.8,0.9-1.3,2-1.4,3.2c0.1,0,0.3,0,0.4,0c0-0.2,0-0.4,0.1-0.7
		c0.2-0.1,0.5-0.2,0.7-0.2C-9029.4,2131.4-9028.6,2131.7-9027.9,2132.3L-9027.9,2132.3L-9027.9,2132.3z M-8985.5,2129L-8985.5,2129
		c0.1-0.4,0.2-0.7,0.2-1.7v-5.7c0-0.6-0.1-1.3-0.2-1.9l0.4-0.2c0.1,0.6,0.2,1.3,0.2,1.9v5.6C-8984.9,2128.3-8985,2128.5-8985.5,2129
		 M-9045.3,2131.6l-0.4,0.3c-0.6-0.5-1.1-1.1-1.6-1.8v-8.4c-4-2.3-4.5-2.5-4.9-2.7l-0.1-0.6h0l5.3,3.1v8.4
		C-9046.5,2130.5-9045.9,2131.1-9045.3,2131.6 M-8982.5,2119.9c0-0.9,0-1.2,0.4-1.6c0.2,0,0.5,0.1,0.8,0.1v11.1
		c-0.6,0.2-1.1,0.2-1.7,0.2c-0.8,0-1.7-0.1-2.4-0.4c1.1-0.4,2.2-0.9,3.1-1.4c-0.1-0.6-0.1-1.3-0.1-1.9L-8982.5,2119.9z
		 M-9020.9,2120.9c0-1.1-0.1-2-0.1-2.4l0.5-0.3h0v10.8l-0.4,0.3h0L-9020.9,2120.9z M-9081.9,2117.7c-1.1,1.5-1.2,1.8-1.2,3.6v4.9
		c0,2.3-0.1,3.2-1.6,5l0,0c1.3-1.6,1.3-2.6,1.3-4.8v-5C-9083.5,2119.6-9083.3,2119.3-9081.9,2117.7L-9081.9,2117.7z M-9073.5,2131.6
		l-0.4,0.3c-0.7-0.4-1.3-1-1.8-1.6v-10.5c0-0.7,0-1.5-0.2-2.2l0.5-0.3c0.1,0.8,0.1,1.6,0.1,2.4v10.5
		C-9074.8,2130.7-9074.2,2131.2-9073.5,2131.6 M-9081.7,2116.7L-9081.7,2116.7c-0.4,0.4-0.9,0.6-1.5,0.6c-0.6,0-1.1-0.3-1.6-0.3
		c-0.5,0-0.9,0.2-1.2,0.5c-0.1,0.1-0.2,0.3-0.3,0.4h0c0.1-0.3,0.2-0.5,0.4-0.7c0.4-0.3,0.8-0.5,1.3-0.5c0.5,0,1.1,0.3,1.7,0.3
		C-9082.5,2117-9082.1,2116.9-9081.7,2116.7 M-9069.8,2116.5c0.5,0.6,1,1.2,1.5,1.7l-0.3,0.2c-0.6-0.5-1.1-1.1-1.5-1.7
		L-9069.8,2116.5z M-8976,2116.5c0.5,0.6,1,1.2,1.6,1.7l-0.3,0.2c-0.6-0.5-1.1-1.1-1.5-1.7L-8976,2116.5z M-8990.6,2119.7
		c0.1-0.6,0.4-1.1,0.7-1.5c0.7-0.7,1.8-1.1,3.2-1.1c2.2,0,4.9,0.7,6.6,0.7c0.9,0,1.6-0.4,2.3-1.5l0.1,0c-0.6,1.3-1.4,1.8-2.4,1.8
		c-1.7,0-4.4-0.7-6.6-0.7c-1.4,0-2.4,0.4-3.1,1.1C-8990.1,2118.9-8990.4,2119.3-8990.6,2119.7L-8990.6,2119.7L-8990.6,2119.7z
		 M-9017.7,2116.1L-9017.7,2116.1c-1.6,0.9-2.7,1.7-3.6,2.3c0.1,0.5,0.1,1,0.1,1.5c-0.3,0.7-0.7,1.4-1.1,2l0.1,0.1h1v7.4
		c-0.2,0.2-0.4,0.3-0.6,0.5v0.1c0.9,0.9,1.9,1.7,3,2.4h0.1c1-0.7,2-1.4,3.1-2l-0.2-0.3c-0.2,0.1-0.5,0.2-0.7,0.3
		c-0.5-0.3-1-0.6-1.5-0.9v-7.4h0.1c0.6,0,1.2,0,1.8,0.1c0.9-1.2,1.4-1.9,1.5-2.4l-0.1-0.1c-0.8,0.1-1.5,0.1-2.3,0.1h-1.1
		C-9017.9,2118.6-9017.8,2117.3-9017.7,2116.1 M-9045.7,2132.2L-9045.7,2132.2c1.1-0.7,2.2-1.5,3.2-2.1l-0.2-0.3
		c-0.3,0.1-0.6,0.3-0.9,0.4c-0.3-0.2-0.5-0.4-0.7-0.6v-6.3c0-1.4,0.1-2,0.1-2.5c-5.9-3.7-7.6-4.8-8.5-5.8l-0.1,0
		c0,1.4,0.1,2.8,0.4,4.2c0.9,0.4,1.8,0.9,2.6,1.4c-1,0.5-2.1,1-3.1,1.4c0.1,0.9,0.1,1.7,0.1,2.6v5.6c0.6,0.8,1.4,1.5,2.2,2h0.1
		c0.9-0.7,2-1.4,3-2C-9047,2131-9046.4,2131.7-9045.7,2132.2 M-9068.6,2118.7L-9068.6,2118.7c1-0.6,1.6-1.1,2.5-1.8v-0.1
		c-0.6-0.7-1.2-1.4-1.8-2.1h-0.1c-0.8,0.5-1.6,1.1-2.4,1.8v0.1C-9069.9,2117.4-9069.3,2118.1-9068.6,2118.7 M-8974.8,2118.7
		L-8974.8,2118.7c1-0.6,1.6-1.1,2.5-1.8v-0.1c-0.6-0.7-1.2-1.4-1.8-2.1h-0.1c-0.8,0.5-1.6,1.1-2.4,1.8v0.1
		C-8976.1,2117.4-8975.5,2118.1-8974.8,2118.7 M-9078.8,2130.6L-9078.8,2130.6l0-6.6h2.8v6.4c0.6,0.7,1.3,1.3,2,1.8h0.1
		c1.1-0.8,2.2-1.6,3.4-2.2l-0.2-0.3c-0.3,0.1-0.6,0.3-0.9,0.4c-0.4-0.2-0.7-0.5-1-0.8v-10.7c0-1.2,0.1-2.5,0.4-3.7l-0.1-0.1
		c-1.4,0.8-2.7,1.7-4,2.7c0.2,0.8,0.3,1.5,0.2,2.3v2h-2.8v-3.4c0-2,0.1-2.5,0.5-3.5l-0.1,0c-0.7,0.9-0.9,1.7-0.9,3.7v11.5
		c-0.5-0.2-1-0.4-1.5-0.4c-0.7,0-1.5,0.1-2.1,0.4l0,0c2.5-2.2,2.6-2.6,2.6-4.3v-6.9c0-2.1,0.3-3,0.8-4l-0.1-0.1
		c-0.5,0.3-1,0.5-1.6,0.5c-0.8,0-1.8-0.4-2.7-0.4c-0.7,0-1.3,0.2-1.8,0.7c-0.4,0.4-0.7,1-0.7,1.7c0,0.3,0.1,0.7,0.2,1h0.1
		c0.1-0.2,0.2-0.5,0.4-0.6c0.3-0.3,0.7-0.4,1.1-0.4c0.6,0,1,0.3,1.6,0.3s1-0.2,1.9-0.8l0,0c-2.3,2.4-2.4,2.8-2.4,4.7v0.3
		c-0.4,0-0.7,0-1.1-0.1c-0.7,0.8-1.3,1.6-1.9,2.4l0.1,0.1c0.6-0.1,1.3-0.1,1.9-0.1h1v3.2c0,2-0.3,2.8-1.9,4.9l0.1,0.1
		c0.8-0.4,1.7-0.6,2.6-0.6c0.6,0,1.2,0.2,1.6,0.6h0.1C-9080.5,2131.6-9079.7,2131-9078.8,2130.6 M-8988.6,2124.3
		c0-1.7,0.7-3.2,1.9-4.4l-0.1-0.1c-1.1,0.4-2.1,1-3,1.8c-1,1.1-1.6,2.5-1.6,4c0,1.7,0.6,3.4,1.9,4.6c1.3,1.3,3.2,2.1,5.5,2.1
		c1.9,0.1,3.7-0.6,5-2c1-1.1,1.6-2.5,1.7-4l-0.1,0c-0.7,1.3-1.9,2.4-3.3,2.9v-10.8c0.4,0,0.6,0,0.7,0c1.5,0,2.6-0.9,3.2-3.8
		l-0.1-0.1c-0.6,0.8-1.3,1-2.4,1c-1.7,0-4.5-0.7-6.6-0.7c-1.6,0-3,0.5-4,1.4c-0.7,0.6-1,1.5-1,2.4c0,0.5,0.1,1.1,0.3,1.6h0.1
		c0.1-0.6,0.4-1.1,0.8-1.6c0.7-0.7,1.6-1.1,3-1.1c1.4,0,2.8,0.2,4.2,0.4c-1.1,0.4-2.4,0.9-3.3,1.4c0.1,0.7,0.2,1.4,0.2,2.2v5.9
		c0,0.8,0,1.1-0.3,1.4c-0.4-0.2-0.8-0.5-1.1-0.8C-8988.1,2127.2-8988.6,2125.8-8988.6,2124.3"/>
</g>
</svg>
