<svg width="33" height="33" viewBox="0 0 33 33" fill="none" xmlns="http://www.w3.org/2000/svg">
<circle cx="16.5" cy="16.5" r="16.5" fill="#C1FF72"/>
<path d="M14.784 21.224C14.784 21.768 14.96 22.04 15.312 22.04C15.664 22.04 15.92 21.784 16.08 21.272L16.536 21.344C16.536 21.472 16.488 21.672 16.392 21.944C16.312 22.2 16.208 22.416 16.08 22.592C15.968 22.752 15.784 22.896 15.528 23.024C15.272 23.168 14.984 23.24 14.664 23.24C13.544 23.24 12.904 22.648 12.744 21.464C12.28 22.648 11.48 23.24 10.344 23.24C9.384 23.24 8.616 22.896 8.04 22.208C7.48 21.52 7.2 20.592 7.2 19.424V15.272C7.2 14.12 7.48 13.2 8.04 12.512C8.616 11.824 9.424 11.48 10.464 11.48C11.504 11.48 12.248 12.024 12.696 13.112V11.72H14.784V21.224ZM12.696 19.712V14.984C12.696 14.248 12.52 13.6 12.168 13.04C11.816 12.48 11.328 12.2 10.704 12.2C9.76 12.2 9.288 12.952 9.288 14.456V20.24C9.288 21.728 9.752 22.472 10.68 22.472C11.336 22.472 11.832 22.208 12.168 21.68C12.52 21.136 12.696 20.48 12.696 19.712ZM24.5601 23H22.7121V19.64C22.7121 19 22.4721 18.472 21.9921 18.056C21.5281 17.64 20.9201 17.424 20.1681 17.408V23H18.1041V6.44H20.1681V16.16L23.6961 11.72H24.6081L20.5761 16.784C21.7441 16.864 22.6961 17.256 23.4321 17.96C24.1841 18.664 24.5601 19.512 24.5601 20.504V23Z" fill="black"/>
</svg>
