<?xml version="1.0" encoding="utf-8"?>
<!-- Generator: Adobe Illustrator 25.4.1, SVG Export Plug-In . SVG Version: 6.00 Build 0)  -->
<svg version="1.1" id="Layer_1" xmlns="http://www.w3.org/2000/svg" xmlns:xlink="http://www.w3.org/1999/xlink" x="0px" y="0px"
	 width="175px" height="40px" viewBox="0 0 175 40" style="enable-background:new 0 0 175 40;" xml:space="preserve">
<style type="text/css">
	.st0{fill:#011C43;}
	.st1{fill:#E1261D;}
	.st2{fill:#FEFEFE;}
	.st3{fill:#E1281E;}
	.st4{fill:#E1271E;}
</style>
<g>
	<path class="st0" d="M122.4,31.3c0-0.6-0.1-0.7-0.7-0.7c-2.7,0-5.5,0-8.2,0c-0.5,0-0.6-0.1-0.6-0.6c0-1.1,0-2.1,0-3.2
		c0-5.5,0-11.1,0-16.6c0-0.7-0.2-0.8-0.9-0.8c-26.7,0-53.4,0-80.1,0c-0.6,0-0.7,0.2-0.7,0.7c0,9.7,0,19.4,0,29.1
		c0,0.6,0.1,0.8,0.7,0.8c14.9,0,29.8,0,44.8,0c15,0,30,0,45,0c0.5,0,0.7-0.1,0.7-0.7C122.4,36.7,122.4,34,122.4,31.3z M53.4,33.1
		c0,0.4-0.1,0.5-0.5,0.5c-1.1,0-2.2,0-3.3,0c-0.4,0-0.7-0.1-0.9-0.5c-2-3.5-4-6.9-6-10.4c0-0.1-0.1-0.1-0.2-0.3c0,3.6,0,7.1,0,10.5
		c0,0.6-0.2,0.7-0.7,0.7c-1,0-2.1,0-3.1,0c-0.4,0-0.5-0.1-0.5-0.5c0-5.7,0-11.4,0-17.1c0-0.4,0.1-0.5,0.5-0.5c1.2,0,2.4,0,3.5,0
		c0.4,0,0.6,0.1,0.8,0.4c1.9,3.3,3.9,6.7,5.9,10c0.1-0.2,0.1-0.4,0.1-0.6c0-3.1,0-6.2,0-9.3c0-0.5,0.1-0.6,0.6-0.6
		c1.1,0,2.2,0,3.3,0c0.4,0,0.5,0.1,0.5,0.5C53.4,21.7,53.4,27.4,53.4,33.1z M70.1,30.3c0,1,0,2,0,2.9c0,0.3-0.1,0.4-0.4,0.4
		c-4.4,0-8.9,0-13.3,0c-0.5,0-0.4-0.3-0.4-0.6c0-2.8,0-5.7,0-8.5c0-2.8,0-5.7,0-8.5c0-0.5,0.1-0.6,0.6-0.6c4.2,0,8.4,0,12.6,0
		c0.5,0,0.6,0.1,0.6,0.6c0,1,0,1.9,0,2.9c0,0.5-0.2,0.6-0.6,0.6c-2.7,0-5.3,0-8,0c-0.5,0-0.8,0.1-0.7,0.7c0.1,0.7-0.3,1.6,0.2,1.9
		c0.4,0.3,1.2,0.1,1.9,0.1c2,0,3.9,0,5.9,0c0.4,0,0.5,0.1,0.5,0.5c0,0.9,0,1.8,0,2.7c0,0.5-0.1,0.7-0.6,0.6c-2.4,0-4.8,0-7.3,0
		c-0.4,0-0.6,0.1-0.6,0.6c0,0.8,0,1.7,0,2.5c0,0.5,0.1,0.6,0.6,0.6c2.8,0,5.6,0,8.4,0C69.9,29.7,70.1,29.7,70.1,30.3z M94.6,16.1
		c-0.6,2.2-1.3,4.4-1.9,6.6c-1,3.5-2,7-3,10.5c-0.1,0.4-0.3,0.6-0.7,0.5c-1,0-2.1,0-3.1,0c-0.3,0-0.5-0.1-0.5-0.4
		c-0.8-3.7-1.5-7.3-2.4-11c-0.2,0.8-0.4,1.6-0.5,2.3c-0.6,2.8-1.2,5.7-1.7,8.5c-0.1,0.4-0.2,0.6-0.7,0.6c-1.2,0-2.4,0-3.6,0
		c-0.3,0-0.5-0.1-0.6-0.4c-1.1-4.1-2.3-8.2-3.4-12.2c-0.5-1.7-0.9-3.3-1.4-4.9c-0.1-0.4-0.1-0.5,0.4-0.5c1.4,0,2.9,0,4.3,0
		c0.4,0,0.5,0.2,0.5,0.5c0.6,2.8,1.3,5.7,1.9,8.5c0.1,0.3,0.2,0.6,0.3,1.1c0.7-3.3,1.3-6.4,1.9-9.5c0.1-0.4,0.2-0.6,0.7-0.6
		c1.3,0,2.6,0,3.9,0c0.3,0,0.4,0,0.5,0.4c0.7,3.3,1.3,6.6,2,10c0.2,0,0.2-0.2,0.2-0.4c0.7-3,1.5-6,2.1-9.1c0.1-0.6,0.4-0.9,1.1-0.8
		c1.1,0.1,2.2,0,3.3,0C94.7,15.5,94.8,15.7,94.6,16.1z M110.1,29.2c-0.5,2.5-2.1,3.8-4.5,4.4c-2.3,0.6-4.6,0.5-6.9-0.2
		c-2.2-0.8-3.8-3-3.8-5.4c0-0.4,0.1-0.7,0.6-0.7c1.1,0.1,2.2,0,3.3,0c0.2,0,0.4-0.1,0.4,0.3c0.3,1.8,1.3,2.6,3.2,2.5
		c0.7,0,1.5,0,2.2-0.4c0.6-0.3,1-0.7,1-1.4c0-0.7-0.6-1-1.2-1.2c-1.4-0.3-2.8-0.7-4.2-1.1c-1.4-0.4-2.8-1-3.9-2
		c-1.3-1.2-1.6-4.1-0.9-5.7c1.1-2.1,2.9-3.2,5.2-3.4c2.2-0.3,4.3,0,6.2,1.2c1.7,1.1,2.5,2.8,2.6,4.9c0,0.3-0.1,0.4-0.4,0.4
		c-0.6,0-1.2,0-1.8,0h-0.8c-0.4,0-0.8,0.1-1.2,0c-0.4-0.1-0.2-0.7-0.3-1c-0.2-0.3-0.4-0.7-0.7-0.9c-1.1-0.7-2.3-0.8-3.5-0.6
		c-0.3,0.1-0.6,0.3-0.9,0.5c-0.7,0.8-0.6,1.6,0.4,2c1.4,0.6,2.8,0.8,4.3,1.2c1,0.3,2.1,0.6,3,1.1C109.7,25,110.5,26.9,110.1,29.2z"
		/>
	<path class="st1" d="M143.7,15.2C143.7,15.2,143.7,15.2,143.7,15.2c0-4.8,0-9.6,0-14.5c0-0.6-0.1-0.7-0.7-0.7c-9.6,0-19.2,0-28.8,0
		c-0.5,0-0.7,0.1-0.7,0.7c0,9.6,0,19.2,0,28.8c0,0.5,0.1,0.7,0.7,0.7c9.6,0,19.2,0,28.8,0c0.5,0,0.7-0.1,0.6-0.7
		C143.7,24.8,143.7,20,143.7,15.2z M124.5,24.2c-1,0-2,0-3.1,0c-0.5,0-0.7-0.1-0.7-0.6c0-4.3,0-8.5,0-12.8c0-1,0.1-0.8-0.8-0.8
		c-0.6,0-1.2,0-1.8,0c-0.3,0-0.4-0.1-0.4-0.4c0-1.2,0-2.4,0-3.5c0-0.3,0.1-0.4,0.4-0.4c2.1,0,4.3,0,6.4,0c0.5,0,0.5,0.2,0.5,0.6
		c0,2.9,0,5.8,0,8.8c0,2.9,0,5.8,0,8.6C125.2,24,125.1,24.2,124.5,24.2z M139.7,20.8c-1.2,2.5-3.4,3.6-6,3.7
		c-2.7,0.1-5.1-1.4-6.2-3.8c-1-2.1-0.3-4.8,1.6-6.3c0.2-0.1,0.3-0.2,0.5-0.4c-2.1-1.9-2.4-3.8-1.2-6c0.9-1.6,2.3-2.4,4-2.7
		c1.7-0.3,3.4,0,5,0.9c2.5,1.5,3.3,5.8,0.4,7.8c0.4,0.3,0.7,0.5,1,0.8C140.2,16.2,140.6,18.8,139.7,20.8z M133.7,16
		c-1.2,0-2.1,0.8-2.1,1.9c0,1.3,0.8,2.3,2,2.4c1.2,0.1,2.2-1,2.2-2.2C135.8,16.9,134.8,16,133.7,16z M133.6,12.7c1,0,1.8-0.9,1.8-2
		c0-1-0.7-1.8-1.8-1.7c-1.1,0-1.8,0.8-1.8,1.9C131.8,11.9,132.6,12.7,133.6,12.7z"/>
	<path class="st2" d="M131.8,10.9c0-1.1,0.7-1.8,1.8-1.9c1,0,1.8,0.7,1.8,1.7c0,1.1-0.8,2-1.8,2C132.6,12.7,131.8,11.9,131.8,10.9z"
		/>
	<path class="st2" d="M135.8,18.1c0,1.2-1,2.3-2.2,2.2c-1.2-0.1-2-1.1-2-2.4c0-1.1,1-2,2.1-1.9C134.8,16,135.8,16.9,135.8,18.1z"/>
	<path class="st3" d="M135.8,18.1c0,1.2-1,2.3-2.2,2.2c-1.2-0.1-2-1.1-2-2.4c0-1.1,1-2,2.1-1.9C134.8,16,135.8,16.9,135.8,18.1z"/>
	<path class="st4" d="M135.4,10.7c0,1.1-0.8,2-1.8,2c-1,0-1.8-0.8-1.8-1.8c0-1.1,0.7-1.8,1.8-1.9C134.7,9,135.4,9.7,135.4,10.7z"/>
</g>
</svg>
