<svg width="126" height="154" viewBox="0 0 126 154" fill="none" xmlns="http://www.w3.org/2000/svg">
<path d="M37.3191 49.3088C37.3884 49.579 37.3884 49.579 37.3191 49.3088V49.3088ZM115.484 63.3153C116.669 64.6998 117.888 66.0822 119.073 67.4667C118.058 66.0487 116.873 64.6663 115.484 63.3153ZM93.2325 57.5112C93.1653 57.5447 93.1989 57.5447 93.2325 57.5112V57.5112ZM82.2604 39.1501C82.2604 39.1166 82.2604 39.1166 82.2604 39.1501C82.1259 39.2528 82.2268 39.1857 82.2604 39.1501ZM43.0773 51.5375C43.0437 51.5039 43.01 51.4348 42.9428 51.4013C42.8062 51.6045 42.6717 51.8077 42.5351 52.0087C42.7053 51.8747 42.9071 51.705 43.0773 51.5375ZM104.104 154C103.936 154 103.969 154 104.104 154V154ZM125.983 81.2365C125.846 85.1848 126.084 89.2021 125.441 93.0478C124.898 96.3551 123.509 99.5619 122.29 102.735C121.477 104.861 120.361 106.92 119.21 108.91C118.295 110.531 117.144 112.016 116.093 113.568C116.026 113.669 115.959 113.805 116.127 114.109C113.588 116.943 110.946 119.71 108.507 122.646C106.17 125.449 103.259 127.472 100.243 129.431C99.8713 129.667 99.4993 129.902 99.1252 130.172C99.058 130.206 98.9907 130.241 98.9235 130.275C98.2111 130.949 97.5008 131.657 96.7547 132.298C95.7397 133.176 94.6889 134.053 93.573 134.797C92.5895 135.438 91.4715 135.876 90.4564 136.45C89.847 136.787 89.2711 137.227 88.6617 137.564C88.4915 137.664 88.2561 137.597 88.2561 137.597C88.0859 137.901 88.0523 138.205 87.882 138.305C86.2575 139.183 84.5973 139.994 82.9371 140.838C81.8548 141.412 80.8377 142.053 79.4507 142.83C86.5959 143.672 93.2325 145.326 99.6674 147.857C100.617 148.229 101.565 148.634 102.513 149.004C104.07 149.645 104.104 150.894 103.833 152.312C103.732 152.819 104.037 153.426 104.137 154C104.104 154 104.07 154 104.037 154C102.919 153.393 102.141 152.919 101.328 152.515C100.922 152.312 100.481 152.178 100.042 152.008C100.006 152.008 99.9049 152.144 99.804 152.211C99.5329 152.211 99.2618 152.211 98.7869 152.211C98.8899 152.379 98.8562 152.312 98.7869 152.245C98.7197 152.345 98.6524 152.448 98.6188 152.515C97.4671 152.075 96.3155 151.637 95.1302 151.267C93.6066 150.76 92.083 150.286 90.5573 149.815C89.5759 149.545 88.5945 149.342 87.6109 149.105C86.6968 148.87 85.7826 148.667 84.8684 148.363C84.7339 148.33 84.7339 147.823 84.6982 147.553C83.3112 147.283 81.8885 147.048 80.6696 146.811C80.161 146.845 79.7554 146.845 79.3813 146.878C79.4507 146.945 79.5852 147.115 79.9235 147.486C77.8913 147.486 76.0294 147.486 74.0981 147.486C74.3019 147.622 74.4385 147.723 74.7432 147.993C74.3019 147.959 74.1338 147.926 73.9636 147.89C73.9636 147.926 73.9299 147.993 73.9299 148.026C74.201 148.093 74.4385 148.16 74.9786 148.296C73.9972 148.296 73.2869 148.296 72.5072 148.296C72.6417 148.16 72.711 148.06 72.8119 147.959C72.1016 147.857 71.4228 147.756 70.7461 147.656C71.1517 147.519 71.5594 147.385 71.9314 147.283C71.9314 147.318 71.965 147.385 71.965 147.419C71.7969 147.486 71.6266 147.519 71.3556 147.622C71.9986 147.622 72.4736 147.622 73.2532 147.622C72.5072 147.352 72.1016 147.082 71.6266 147.082C71.2211 147.048 70.7797 147.283 70.3741 147.385C70.475 147.486 70.5759 147.586 70.6789 147.689C68.7476 148.093 66.852 148.464 64.9206 148.87C64.9206 148.801 64.887 148.734 64.887 148.667C65.5301 148.567 66.2089 148.464 66.9865 148.363C66.749 148.33 66.6145 148.296 66.48 148.263C66.6481 148.229 66.749 148.229 66.852 148.194C66.852 148.16 66.852 148.093 66.852 148.06C66.5136 148.06 66.1753 148.127 65.8684 148.06C65.5637 147.993 65.1917 147.857 64.9879 147.656C64.8534 147.519 64.9543 147.149 64.9543 146.878C63.6345 146.845 63.9056 145.867 64.0065 144.853C64.0401 144.652 63.5673 144.348 63.2962 144.111C63.2268 144.044 63.0587 144.044 62.9578 144.009C63.0923 143.672 63.1259 143.267 63.3634 143.031C63.6681 142.727 64.1767 142.593 64.5151 142.289C65.2254 141.715 65.8684 141.041 66.6145 140.467C68.2411 139.183 69.9664 137.968 71.5594 136.653C72.7783 135.641 73.9636 134.56 75.048 133.379C77.2483 130.916 79.686 128.587 81.4471 125.82C83.3784 122.713 85.2404 119.372 84.2254 115.357C84.1917 115.187 84.2254 114.986 84.2254 114.683C84.4628 114.817 84.631 114.951 84.8012 115.02C84.9357 115.087 85.0723 115.154 85.1732 115.221C85.2404 115.02 85.3097 114.817 85.377 114.58C87.7475 117.146 87.3756 126.595 85.0723 127.541C84.9021 128.113 84.7339 128.62 84.5973 129.093C82.4306 133.176 79.3813 136.552 75.8949 139.656C77.4521 138.812 79.0766 137.968 80.6023 137.09C83.7504 135.268 86.867 133.412 89.9478 131.523C91.7089 130.442 93.5036 129.364 95.2311 128.216C96.5193 127.372 97.7719 126.494 98.9235 125.516C101.803 123.053 104.713 120.656 107.424 118.024C109.795 115.728 111.861 113.164 114.094 110.732C114.366 110.429 114.67 110.091 114.941 109.788C115.078 109.484 115.213 109.18 115.349 108.877C115.517 108.979 115.62 109.046 115.721 109.113C115.788 109.013 115.889 108.877 115.959 108.776C116.026 108.742 116.059 108.709 116.127 108.675C116.194 108.573 116.297 108.439 116.364 108.336H116.331C116.297 108.303 116.263 108.269 116.23 108.202C116.431 107.762 116.635 107.358 116.839 106.92C117.955 104.962 119.176 103.039 120.124 101.013C122.019 97.0317 123.612 92.9137 123.612 88.358C123.646 88.4251 123.68 88.4921 123.747 88.7288C123.848 88.2889 123.917 87.9517 123.984 87.648C124.018 87.5474 123.951 87.4469 124.085 87.3443C124.424 80.0216 123.003 73.3043 118.905 67.5673C119.548 68.3108 120.191 69.0523 120.8 69.7959C120.868 69.7289 120.971 69.6597 121.038 69.5927C118.905 67.0625 116.77 64.5301 114.67 61.9999C114.603 62.0669 114.502 62.1004 114.433 62.1674C114.332 61.9999 114.197 61.8302 114.094 61.6626C113.994 61.5935 114.027 61.627 114.094 61.6626C113.622 61.5935 113.079 61.5935 112.638 61.426C111.014 60.8185 109.456 60.075 107.83 59.5366C106.916 59.2308 105.865 59.1638 105.018 58.726C103.936 58.3888 102.885 58.016 101.803 57.6788C101.803 57.7479 101.803 57.8484 101.767 57.9154C100.853 57.9154 99.9385 57.9154 99.0244 57.9154C99.0244 57.8819 99.0244 57.8484 99.0244 57.7814C99.161 57.7479 99.3291 57.7479 99.9722 57.6452C99.0244 57.5782 98.5852 57.5447 98.1438 57.5112C98.1438 57.4442 98.1438 57.3415 98.1438 57.2745C99.7368 57.3415 101.294 57.4442 103.461 57.5447C102.818 57.1405 102.614 56.9373 102.378 56.9038C100.886 56.8011 99.3627 56.7341 97.6016 56.6336C97.9064 56.8011 98.0093 56.8367 98.043 56.8703C97.4335 56.9373 96.7904 57.0043 96.1116 57.0713C96.1116 57.1405 96.1116 57.174 96.1116 57.241C96.3491 57.241 96.5866 57.2745 96.8241 57.2745C96.8241 57.308 96.8241 57.3415 96.8241 57.375C96.1116 57.375 95.3677 57.375 94.2161 57.375C94.7246 57.5447 94.8255 57.5782 94.9264 57.6117C94.8591 57.6117 94.7919 57.6117 94.7246 57.6117C94.0795 57.6117 93.4364 57.6117 93.2325 57.6117C93.1317 57.6452 93.0644 57.6452 93.0308 57.6452C93.0308 57.6452 93.0644 57.6452 93.098 57.6452C93.098 57.6117 93.098 57.5782 93.098 57.5447C91.4042 57.8149 89.7104 58.0516 88.0186 58.3197V58.2862C87.8148 58.3197 87.5773 58.3197 87.239 58.3888C87.2053 58.3888 87.0351 58.3888 86.6968 58.3888C86.9006 58.4894 87.0015 58.5229 87.1045 58.5899C86.7304 58.6925 86.3584 58.8266 85.9864 58.9271C85.9864 58.9627 85.9528 59.0298 85.9528 59.0633C86.392 59.0298 86.867 58.9962 87.3756 58.9627C87.239 58.7931 87.1717 58.6925 87.1045 58.5899C87.3756 58.726 87.6446 58.8266 88.0186 59.0298C86.7304 59.4675 85.4779 59.9409 84.1245 60.4122C84.2254 60.0414 84.2926 59.8404 84.4628 59.3335C84.0215 59.7042 83.8177 59.8739 83.6159 60.0414C83.6832 60.1085 83.784 60.1776 83.8534 60.2446C82.397 60.7159 80.9407 61.1893 79.4843 61.6626C79.4843 61.6291 79.4507 61.5935 79.4507 61.56C79.6188 61.4595 79.789 61.3924 79.9571 61.2898C79.9571 61.2228 79.9235 61.1222 79.9235 61.0552C79.4507 61.1222 78.9757 61.1893 78.1624 61.3233C78.5701 61.5935 78.7046 61.6626 78.8055 61.6962C76.0294 62.978 74.6403 65.6109 72.7447 67.7704C71.7633 68.9183 70.6116 69.9299 69.5272 70.9772C68.4764 72.0224 67.5287 73.2373 66.2761 74.0479C64.6159 75.1287 62.7203 75.8702 60.892 76.7143C60.7218 76.7813 60.2805 76.3435 59.9757 76.1739C59.671 76.0042 59.3327 75.8367 58.8934 75.6C59.1309 75.667 59.2318 75.7005 59.2318 75.7005C59.0279 75.0931 58.7905 74.4521 58.5215 73.7107C58.4521 74.0479 58.4185 74.3181 58.3512 74.5883C58.3176 74.5883 58.3176 74.5883 58.284 74.5883C58.3512 74.1149 58.4521 73.6101 58.4185 73.1702C58.3176 71.9554 57.1996 70.707 58.284 69.4922C60.0787 67.4667 61.907 65.4413 63.872 63.552C64.8198 62.6073 66.0723 61.9664 67.2239 61.2228C67.3605 61.1222 67.5959 61.2228 67.7998 61.2228C68.1717 61.0552 68.6803 60.852 69.1216 60.5818C70.7125 59.7042 72.2361 58.6925 73.8963 57.949C77.0444 56.6001 77.7232 53.4938 78.9085 50.8965C80.2619 47.9599 81.0415 44.7531 81.9893 41.6154C82.1932 40.9745 82.0229 40.1974 82.0229 39.3198V39.2863C81.9221 38.7794 81.9221 38.0714 81.5837 37.8012C80.2619 36.6869 78.8412 35.6417 77.3849 34.6635C76.9772 34.3577 76.3341 34.3933 75.8949 34.2572C75.9621 34.1902 75.9957 34.1231 76.063 34.0205C75.8591 33.92 75.6574 33.6833 75.4536 33.6833C71.9986 33.7859 68.5458 33.8529 65.0909 34.0896C64.0737 34.1566 63.1259 34.7641 62.1109 35.0678C61.5014 35.271 60.8227 35.338 60.1796 35.472C60.0115 35.5056 59.9085 35.6417 59.6038 35.8428C60.1123 35.8093 60.4507 35.7758 60.7554 35.7422C60.7554 35.8093 60.789 35.8784 60.789 35.9454C59.774 36.2826 58.7232 36.5864 57.7082 36.9236C57.2669 37.0576 56.8613 37.2943 56.4199 37.4975C54.3205 38.4422 52.1874 39.3868 50.088 40.3671C48.1567 41.2426 47.9192 43.3351 46.9714 44.8893C45.5844 47.1158 44.1281 49.3444 42.6381 51.5039C42.6023 51.4348 42.5351 51.4013 42.5015 51.3343C41.7218 52.2119 40.9106 53.056 40.1309 53.9337C39.759 54.2374 39.3849 54.5746 39.0129 54.8783C39.0802 54.9453 39.1495 55.0124 39.2168 55.0815C39.5215 54.7086 39.8598 54.3379 40.1646 53.9337C40.877 53.3262 41.5537 52.6853 42.264 52.0779C42.1631 52.2454 42.0622 52.3816 41.9593 52.5491C40.9779 54.0007 39.9964 55.4857 38.7754 56.7341C37.0501 58.5229 35.2196 60.3116 33.1538 61.7632C32.206 62.4376 30.6824 62.2701 29.5308 62.4712C29.4299 62.2701 29.3606 61.9999 29.2933 61.9999C27.8706 61.8637 27.2611 61.0196 26.9564 59.7042C26.6181 58.1186 25.7039 56.533 26.8555 54.9453C28.4464 52.7523 30.0394 50.5593 31.6638 48.3977C32.4435 47.386 33.3241 46.4749 34.2382 45.5637C34.9149 44.8893 35.6273 44.2818 36.3713 43.6388C36.5415 43.5047 36.8126 43.4377 37.2854 43.201C37.9979 42.5601 38.8112 41.5819 39.8262 40.8384C41.7911 39.3868 44.0587 38.2746 45.8198 36.6534C46.7003 35.8784 47.0744 34.2572 47.2089 32.9753C47.48 30.0387 47.6502 27.0351 47.48 24.0985C47.3098 21.1284 45.9564 18.5646 43.857 16.4051C43.2118 15.7621 42.8062 14.8844 42.1631 14.2435C41.5537 13.6361 40.7404 13.1983 40.0301 12.6579C39.8598 12.5238 39.7926 12.2872 39.6224 12.084C39.5887 12.151 39.5887 12.2201 39.5887 12.2536C38.5064 11.443 37.4221 10.4314 36.2032 9.75482C34.7804 8.97982 33.1875 8.47293 31.6302 7.96605C31.7668 8.00165 31.8677 8.03517 32.0022 8.06868C32.0379 7.96605 32.1052 7.86551 32.1388 7.76497C31.3927 7.46125 30.6824 7.12403 29.9364 6.82031C29.3269 6.55011 28.7511 6.17728 28.108 6.04322C27.5322 5.90917 26.9228 6.07674 26.1452 6.11025C25.8741 6.04322 25.3655 5.87356 24.7897 5.706C24.857 5.84005 24.8906 5.94268 24.8906 6.00971C21.402 5.60546 17.9492 5.23262 14.4607 4.82837C14.4607 4.92891 14.427 4.99594 14.427 5.09857C14.4943 5.13208 14.5615 5.13208 14.6624 5.1656C14.5279 5.19911 14.427 5.19911 14.3241 5.23262C14.3241 5.26614 14.3241 5.29965 14.3241 5.36877C15.3076 5.36877 16.2554 5.36877 17.2368 5.36877C17.2368 5.40228 17.2368 5.46931 17.2368 5.50282C17.1023 5.53634 16.9657 5.56985 16.6946 5.60546C16.9321 5.73951 17.0687 5.77302 17.1695 5.84005C14.799 6.00971 12.3949 6.21288 9.48213 6.41396C10.2618 5.90917 10.6674 5.63897 11.2096 5.29965C10.5665 5.36877 9.9907 5.4358 9.41488 5.50282C9.82048 5.29965 10.1924 5.09857 11.0057 4.69222C9.44851 5.06506 8.12664 5.40228 6.80687 5.73951C6.8405 5.77302 6.8405 5.80654 6.87412 5.84005C5.21391 6.55011 3.5558 7.25808 1.89559 7.96605C1.79471 7.79848 1.69174 7.62882 1.62449 7.46125C1.79471 7.25808 1.99646 7.0549 2.20031 6.82031C1.82834 6.58363 1.38701 6.31343 0.947793 6.00971C1.35339 5.84005 1.72746 5.67248 2.33691 5.36877C1.86196 5.4358 1.59086 5.50282 1.55724 5.50282C0.981417 5.03154 0.542196 4.65871 0 4.25445C0.777568 3.91723 1.65811 3.51297 2.53866 3.17365C4.74107 2.36515 6.90775 1.35137 9.21103 0.846577C13.8848 -0.167199 18.6595 -0.403886 23.3334 0.88009C26.5172 1.75772 29.701 2.73589 32.7819 3.98425C35.2533 4.96242 37.5902 6.34694 39.9271 7.66233C40.6395 8.06868 41.1124 8.9128 41.7218 9.52022C42.8734 10.7016 44.1617 11.8138 45.1767 13.0978C47.6502 16.269 49.3756 19.813 50.088 23.8283C50.2561 24.9091 50.4936 25.9899 50.6975 27.1021C50.7311 27.0351 50.7647 27.0016 50.7647 26.9681C50.7647 29.3643 50.7647 31.8275 50.7647 34.0896C52.8978 33.1429 55.1002 31.8945 57.4707 31.1195C60.5516 30.1057 63.7018 29.2616 66.8856 28.7233C70.475 28.1494 74.201 28.0132 77.6202 29.4983C80.8713 30.9163 83.4793 33.1429 83.8534 36.9906C84.1224 40.0634 84.4965 43.1675 84.1581 46.2047C83.9206 48.4312 82.6324 50.5237 81.7519 52.6518C81.4471 53.4268 80.907 54.0677 80.4993 54.8113C80.4321 54.9118 80.533 55.115 80.6023 55.249C80.6023 55.2826 80.7704 55.2826 80.8377 55.2826C84.3262 54.5411 87.7475 53.697 91.2697 53.0895C93.47 52.7188 95.706 52.7523 97.94 52.6518C98.7869 52.6162 99.6338 52.6518 100.481 52.7858C100.785 52.8193 101.023 53.1901 101.294 53.3932C101.361 53.4268 101.462 53.4268 101.565 53.4268C101.532 53.3597 101.498 53.2927 101.462 53.2592C103.698 52.8864 111.623 55.115 111.928 56.2272C111.928 56.2628 111.793 56.3634 111.758 56.3969C113.552 57.4442 115.484 58.3553 117.144 59.6372C120.057 61.8972 121.851 65.0705 123.274 68.3779C125.069 72.4958 126.151 76.7478 125.983 81.2365ZM13.0379 5.53634C13.0379 5.56985 13.0379 5.63897 13.0379 5.67248C13.7819 5.67248 14.5615 5.67248 15.3076 5.67248C15.3076 5.53634 15.3076 5.4358 15.3076 5.29965C14.5615 5.36877 13.8176 5.4358 13.0379 5.53634ZM22.8584 5.1656C22.3856 5.09857 21.9442 5.06506 21.4714 5.03154C21.4714 5.03154 21.4378 5.19911 21.4378 5.29965C21.9106 5.33526 22.3519 5.36877 22.8248 5.40228C22.8248 5.29965 22.8248 5.23262 22.8584 5.1656ZM33.7297 50.3896C33.799 50.4902 33.8999 50.5593 33.9671 50.6598C35.2196 49.445 36.5079 48.2636 37.7604 47.0488C37.6931 46.9817 37.6595 46.9126 37.5902 46.8791C36.304 48.0269 35.0179 49.2083 33.7297 50.3896ZM37.8276 53.8666C37.794 53.7975 37.7268 53.764 37.6931 53.697C37.3884 53.9672 37.1173 54.2374 36.9807 54.3379C36.8799 54.3379 36.7096 54.2709 36.676 54.3044C36.4385 54.6416 36.2032 54.9788 35.9657 55.3161C36.0329 55.3517 36.1002 55.3852 36.1338 55.3852C36.7096 54.8783 37.2518 54.3714 37.8276 53.8666ZM41.1817 46.2717C39.8598 47.319 38.5401 48.3642 37.3191 49.3444C37.2854 49.2418 37.2518 49.1077 37.2182 48.9381C35.9321 50.4231 34.8477 51.638 33.8326 52.8528C32.8155 54.0342 31.8677 55.249 30.8863 56.4639C35.289 54.0342 38.5401 50.4902 41.1817 46.2717ZM67.2912 28.8909C68.2054 28.8909 68.6467 28.8909 69.1216 28.8909C69.1216 28.7903 69.1216 28.7233 69.0859 28.6207C68.6467 28.6898 68.2054 28.7568 67.2912 28.8909ZM69.1889 32.0642C69.1889 31.9971 69.1552 31.928 69.1552 31.861C68.5101 31.9615 67.867 32.0642 67.0894 32.1982C67.0537 32.1647 67.0537 32.0977 67.0201 32.0642C66.1753 32.4014 65.3283 32.7386 64.5151 33.0758C64.3448 33.1429 64.1767 33.1785 64.0065 33.2455C63.769 33.3796 63.5336 33.5492 63.2962 33.7168C63.5336 33.7168 63.7354 33.7503 63.9729 33.7503C64.244 33.7503 64.5487 33.7859 64.8198 33.7168C64.9879 33.6833 65.1245 33.5157 65.259 33.3796C65.1581 33.279 65.0573 33.1785 64.9543 33.1094C64.9543 33.1094 64.9543 33.1094 64.9879 33.1094C65.2254 33.212 65.4628 33.3796 65.5637 33.3125C65.7003 33.2455 65.7339 33.0088 65.8012 32.8748C65.9378 32.8748 66.0723 32.8392 66.1753 32.8392C67.1903 32.5711 68.1717 32.3344 69.1889 32.0642ZM69.5945 29.9047C70.0694 29.8355 70.5086 29.7685 70.9836 29.7015C70.9836 29.6345 70.9836 29.5653 70.9836 29.4983C70.5086 29.5318 70.0358 29.5653 69.5945 29.6345C69.5608 29.7015 69.5945 29.802 69.5945 29.9047ZM72.8119 31.9971C72.1688 31.9971 71.5258 31.9971 70.8827 31.9971C70.8827 32.0307 70.8827 32.0642 70.8827 32.1312C71.5258 32.1312 72.1688 32.1312 72.8119 32.1312C72.8119 32.0642 72.8119 32.0307 72.8119 31.9971ZM70.0022 61.3233C69.6953 61.1558 69.5608 61.0196 69.4936 61.0552C69.1889 61.1893 68.8841 61.3924 68.5794 61.56C68.6803 61.6962 68.8505 61.9328 68.8841 61.8972C69.2225 61.7632 69.5272 61.5935 70.0022 61.3233ZM72.7447 59.434C72.711 59.4005 72.6774 59.3335 72.6774 59.3C72.1688 59.5366 71.6603 59.8048 71.1517 60.0414C71.1874 60.1085 71.2211 60.1441 71.2211 60.2111C71.7275 59.9744 72.2361 59.7042 72.7447 59.434ZM85.1395 57.5782C85.1395 57.5112 85.1059 57.4777 85.1059 57.4086C84.3935 57.5112 83.7168 57.6117 83.0065 57.7479C82.9371 57.7479 82.9035 57.7479 82.8362 57.7123C82.9035 57.6117 83.0065 57.5447 83.2082 57.308C82.4306 57.5782 81.8212 57.7479 81.2454 57.9825C81.2118 57.9825 81.2454 58.1186 81.2454 58.2192C81.3799 58.1856 81.5165 58.1521 81.6846 58.1186C81.5501 58.1521 81.4135 58.2192 81.2454 58.2527L81.2118 58.2192C81.0415 58.5229 80.8713 58.8266 80.7032 59.1303C80.3312 59.1973 79.9235 59.2664 79.5515 59.3C79.5852 59.434 79.6188 59.5702 79.6524 59.6707C79.9908 59.5366 80.3648 59.367 80.7032 59.2329C81.9893 58.8601 83.2776 58.5229 84.5637 58.1521C84.5301 58.016 84.4628 57.8819 84.4292 57.7479C84.6982 57.7123 84.9357 57.6452 85.1395 57.5782ZM104.579 54.7778C104.003 54.7086 103.393 54.6751 102.818 54.6081C102.818 54.7086 102.818 54.8113 102.784 54.8783C103.36 54.9453 103.902 55.0124 104.478 55.0815C104.511 55.0815 104.612 55.0124 104.646 54.9453C104.68 54.9118 104.612 54.7778 104.579 54.7778ZM111.486 57.5447C111.657 57.7814 111.758 58.016 111.928 58.1521C111.995 58.2192 112.233 58.0516 112.403 57.9825C112.098 57.8149 111.793 57.6788 111.486 57.5447ZM113.317 61.3589C113.113 60.852 112.775 60.5483 112.403 60.3116C112.132 60.1441 111.827 60.075 111.556 59.9409C111.522 60.0414 111.486 60.1085 111.453 60.2111C112.062 60.6154 112.672 60.9861 113.317 61.3589ZM123.171 73.8112C122.866 73.0362 122.562 72.2926 122.257 71.5176C122.257 71.482 122.122 71.4485 122.087 71.4485C122.019 71.482 121.885 71.5847 121.919 71.5847C122.223 72.3596 122.562 73.1367 122.9 73.9138C122.967 73.9138 123.07 73.8782 123.171 73.8112ZM76.7061 137.126L76.7397 137.16C76.7397 137.126 76.7754 137.09 76.7754 137.09C76.809 137.057 76.8427 137.057 76.8763 137.023L76.8427 136.99C76.809 137.023 76.809 137.057 76.7754 137.09C76.7397 137.09 76.7397 137.126 76.7061 137.126ZM74.2683 140.061C74.3355 140.163 74.3692 140.23 74.4385 140.331C75.0143 139.96 75.5544 139.623 76.1302 139.252C76.063 139.149 75.9957 139.049 75.9285 138.948C75.3863 139.319 74.8105 139.69 74.2683 140.061ZM75.8949 145.697C75.2497 145.697 74.6066 145.697 73.9636 145.697C73.9636 145.731 73.9636 145.764 73.9636 145.798C74.6066 145.798 75.2497 145.798 75.8949 145.798C75.8949 145.764 75.8949 145.731 75.8949 145.697ZM79.146 141.918C79.1796 141.918 79.1796 141.952 79.2132 141.952C79.2132 141.918 79.1796 141.883 79.146 141.918C79.146 141.883 79.146 141.883 79.146 141.918ZM79.3141 141.986C79.2804 141.986 79.2804 141.986 79.2468 141.952C79.2468 141.986 79.2468 141.986 79.2804 142.019C79.2804 142.019 79.2804 142.019 79.3141 141.986ZM116.364 108.944C116.16 109.013 116.059 109.046 115.959 109.08C115.755 109.247 115.584 109.417 115.383 109.587C115.28 109.89 115.213 110.158 114.975 110.835C115.551 110.058 115.925 109.551 116.364 108.944ZM66.48 32.571C66.7847 32.5019 67.0894 32.4684 67.4614 32.4014C67.3605 32.3679 67.2912 32.3008 67.0558 32.1982C67.0558 32.2317 67.0894 32.2652 67.0894 32.3344C66.9192 32.4014 66.6817 32.4684 66.48 32.571ZM36.6088 10.8021C39.0802 12.9951 41.6545 15.2908 43.9578 17.3498C43.6195 16.4051 38.1324 10.6324 36.6088 10.8021ZM26.347 6.44748C25.6366 6.44748 24.8906 6.44748 24.1803 6.44748C24.1803 6.5166 24.1466 6.58363 24.1466 6.65065C24.7897 6.82031 25.4664 6.98788 26.6181 7.25808C25.9077 6.92085 25.7039 6.85383 25.2983 6.65065C25.8048 6.65065 26.0759 6.65065 26.3133 6.65065C26.347 6.58363 26.347 6.5166 26.347 6.44748ZM101.87 153.256C101.903 153.223 101.903 153.156 101.937 153.122C101.26 152.819 100.548 152.515 99.8713 152.245C99.8713 152.345 99.8713 152.515 99.9049 152.515C100.548 152.752 101.227 152.986 101.87 153.256ZM65.4965 34.4604C64.6832 34.6279 63.9056 34.8311 63.0923 35.0008C63.0923 35.0343 63.0923 35.0678 63.1259 35.1013C63.9392 34.9316 64.7525 34.7976 65.5637 34.6279C65.4965 34.5609 65.4965 34.5274 65.4965 34.4604ZM100.718 58.5564V58.5899C101.294 58.6925 101.903 58.7596 102.479 58.8601C102.479 58.7931 102.479 58.726 102.513 58.659C101.903 58.6234 101.294 58.5899 100.718 58.5564ZM119.447 69.7959C119.378 69.8294 119.311 69.8629 119.277 69.8964C119.481 70.2672 119.682 70.6044 119.92 70.9772C119.987 70.9437 120.021 70.9081 120.09 70.8746C119.853 70.5039 119.649 70.1666 119.447 69.7959ZM29.8355 7.89902C29.8355 7.93253 29.8019 7.99956 29.8019 8.03517C30.1402 8.20273 30.445 8.33888 30.7833 8.50645C30.8169 8.40591 30.8505 8.33888 30.8863 8.23625C30.5122 8.10219 30.1739 7.99956 29.8355 7.89902ZM45.8534 19.2726C45.8198 19.2726 45.8198 19.2726 45.8534 19.2726V19.2726ZM45.6853 19.6768C45.618 19.4087 45.618 19.2726 45.5844 19.172C45.6853 19.2055 45.7525 19.2391 45.8534 19.2726C45.6517 19.0694 45.4478 18.9018 44.9729 18.4976C45.2797 19.0359 45.4478 19.3061 45.6853 19.6768ZM99.1252 130.172C99.058 130.206 98.9907 130.241 98.9235 130.275C98.9907 130.308 99.0916 130.342 99.1946 130.375C99.161 130.275 99.161 130.206 99.1252 130.172ZM82.8699 57.7123C82.4979 57.8484 82.0923 57.949 81.7182 58.0851C82.1596 57.949 82.5988 57.8484 83.0401 57.7123C82.9728 57.7479 82.9035 57.7479 82.8699 57.7123Z" fill="#C1FF72"/>
</svg>
